<?xml version="1.0" encoding="UTF-8" standalone="no"?>
<!-- Created with Inkscape (http://www.inkscape.org/) -->

<svg
   width="210mm"
   height="297mm"
   viewBox="0 0 210 297"
   version="1.1"
   id="svg1"
   inkscape:version="1.3.2 (091e20ef0f, 2023-11-25, custom)"
   sodipodi:docname="decals.svg"
   xmlns:inkscape="http://www.inkscape.org/namespaces/inkscape"
   xmlns:sodipodi="http://sodipodi.sourceforge.net/DTD/sodipodi-0.dtd"
   xmlns="http://www.w3.org/2000/svg"
   xmlns:svg="http://www.w3.org/2000/svg">
  <sodipodi:namedview
     id="namedview1"
     pagecolor="#ffffff"
     bordercolor="#000000"
     borderopacity="0.25"
     inkscape:showpageshadow="2"
     inkscape:pageopacity="0.0"
     inkscape:pagecheckerboard="0"
     inkscape:deskcolor="#d1d1d1"
     inkscape:document-units="mm"
     inkscape:zoom="0.50265"
     inkscape:cx="413.80682"
     inkscape:cy="627.67333"
     inkscape:window-width="1898"
     inkscape:window-height="1042"
     inkscape:window-x="10"
     inkscape:window-y="26"
     inkscape:window-maximized="1"
     inkscape:current-layer="layer1" />
  <defs
     id="defs1" />
  <g
     inkscape:label="Layer 1"
     inkscape:groupmode="layer"
     id="layer1">
    <path
       style="font-size:25px;line-height:0px;font-family:Amalgama;-inkscape-font-specification:Amalgama;letter-spacing:0px;word-spacing:0px;fill:none;stroke:#000000;stroke-width:0.352778"
       d="M 19.02368,35.007004 V 22.799973 q 0,-3.027344 2.34375,-5.175782 2.368164,-2.148437 5.71289,-2.148437 h 10.742188 v 4.882812 H 27.08032 q -1.123047,0 -1.904297,0.732422 -0.78125,0.708008 -0.78125,1.708985 v 2.441406 h 13.427735 v 4.882812 H 24.394773 v 4.882813 z m 29.052734,0 q -9.033203,0 -9.033203,-9.765625 0,-9.765625 9.033203,-9.765625 h 12.329102 q 1.513672,0 2.734375,0.463867 1.245117,0.439453 2.001953,1.123047 0.78125,0.683594 1.293945,1.538086 0.512695,0.854492 0.708008,1.635742 0.219726,0.756836 0.219726,1.416016 0,2.34375 -1.904296,4.125976 -1.904297,1.782227 -5.053711,1.782227 H 46.855711 v -4.638672 h 13.549805 q 0.683593,0 1.123047,-0.366211 0.463867,-0.390625 0.463867,-0.90332 0,-0.53711 -0.463867,-0.903321 -0.439454,-0.390625 -1.123047,-0.390625 H 48.076414 q -1.611328,0 -2.636719,1.171875 -1.02539,1.147461 -1.02539,3.710938 0,2.563476 1.02539,3.735351 1.025391,1.147461 2.636719,1.147461 h 19.287109 v 4.882813 z m 20.507813,0 v -19.53125 h 5.371093 v 19.53125 z m 6.591796,0 v -4.150391 h 13.793946 q 0.512695,0 0.927734,-0.390625 0.415039,-0.415039 0.415039,-0.952148 0,-0.53711 -0.415039,-0.927735 -0.415039,-0.415039 -0.927734,-0.415039 H 81.76782 q -2.832031,0 -4.711914,-1.782226 -1.879883,-1.806641 -1.879883,-4.56543 0,-1.171875 0.41504,-2.270508 0.415039,-1.123047 1.196289,-2.026367 0.805664,-0.927734 2.075195,-1.489258 1.293945,-0.561523 2.905273,-0.561523 h 13.916016 v 4.882812 H 82.256102 q -0.78125,0 -1.245118,0.439453 -0.463867,0.439454 -0.463867,1.025391 0,0.585938 0.463867,1.025391 0.463868,0.439453 1.245118,0.439453 h 7.080078 q 2.490234,0 4.418945,1.733398 1.928711,1.708985 1.928711,4.125977 0,2.294922 -1.757813,4.077148 -1.757812,1.782227 -4.589843,1.782227 z M 96.904539,20.358566 v -4.882812 h 19.287111 q 9.0332,0 9.0332,9.765625 0,9.765625 -9.0332,9.765625 h -12.3291 q -1.51367,0 -2.75879,-0.439453 -1.220705,-0.463868 -2.001955,-1.147461 -0.756836,-0.683594 -1.269532,-1.538086 -0.512695,-0.854492 -0.732421,-1.611328 -0.195313,-0.78125 -0.195313,-1.44043 0,-2.34375 1.904297,-4.125977 1.904294,-1.782226 5.053714,-1.782226 h 13.5498 v 4.638672 h -13.5498 q -0.6836,0 -1.14746,0.390625 -0.43946,0.366211 -0.43946,0.878906 0,0.537109 0.43946,0.927734 0.46386,0.366211 1.14746,0.366211 h 12.3291 q 1.61133,0 2.63672,-1.147461 1.02539,-1.171875 1.02539,-3.735351 0,-2.563477 -1.02539,-3.710938 -1.02539,-1.171875 -2.63672,-1.171875 z M 126.44555,35.007004 V 22.799973 q 0,-3.027344 2.34375,-5.175782 2.36817,-2.148437 5.7129,-2.148437 h 12.45117 q 1.61133,0 2.88086,0.561523 1.29394,0.561524 2.07519,1.489258 0.80567,0.90332 1.22071,2.026367 0.41503,1.098633 0.41503,2.270508 0,2.758789 -1.87988,4.56543 -1.87988,1.782226 -4.71191,1.782226 h -7.20215 q -0.5127,0 -0.92774,0.415039 -0.41503,0.390625 -0.41503,0.927735 0,0.537109 0.41503,0.952148 0.41504,0.390625 0.92774,0.390625 h 13.79394 v 4.150391 h -14.16015 q -2.83203,0 -4.58985,-1.782227 -1.75781,-1.782226 -1.75781,-4.077148 0,-2.416992 1.92871,-4.125977 1.92871,-1.733398 4.41895,-1.733398 h 7.08008 q 0.78125,0 1.24511,-0.439453 0.46387,-0.439453 0.46387,-1.025391 0,-0.585937 -0.46387,-1.025391 -0.46386,-0.439453 -1.24511,-0.439453 H 134.5022 q -1.12305,0 -1.9043,0.732422 -0.78125,0.708008 -0.78125,1.708985 v 12.207031 z"
       id="text1"
       aria-label="Feisar&#10;" />
    <text
       xml:space="preserve"
       style="font-style:normal;font-variant:normal;font-weight:normal;font-stretch:normal;font-size:25px;line-height:0px;font-family:Amalgama;-inkscape-font-specification:Amalgama;text-align:start;letter-spacing:0px;word-spacing:0px;writing-mode:lr-tb;text-anchor:start;fill:none;stroke:#000000;stroke-width:0.352777"
       x="18.84729"
       y="52.315674"
       id="text3"><tspan
         sodipodi:role="line"
         id="tspan3"
         style="stroke-width:0.352778"
         x="18.84729"
         y="52.315674"></tspan><tspan
         sodipodi:role="line"
         style="stroke-width:0.352778"
         id="tspan4"
         x="18.84729"
         y="52.315674" /></text>
    <path
       style="font-size:25px;line-height:0px;font-family:Amalgama;-inkscape-font-specification:Amalgama;letter-spacing:0px;word-spacing:0px;fill:none;stroke:#000000;stroke-width:0.352778"
       d="m 32.41758,51.209888 v -4.882812 h 9.765625 v 4.882812 z"
       id="text5"
       aria-label="-" />
    <path
       style="font-size:25px;line-height:0px;font-family:Amalgama;-inkscape-font-specification:Amalgama;letter-spacing:0px;word-spacing:0px;fill:none;stroke:#000000;stroke-width:0.352778"
       d="M 18.84729,83.585556 V 71.378525 q 0,-3.027344 2.34375,-5.175781 2.368164,-2.148438 5.712891,-2.148438 h 10.742187 v 4.882813 H 26.903931 q -1.123047,0 -1.904297,0.732421 -0.78125,0.708008 -0.78125,1.708985 v 2.441406 h 13.427734 v 4.882813 H 24.218384 v 4.882812 z m 20.019531,0 v -4.150391 h 13.793946 q 0.512695,0 0.927734,-0.390625 0.415039,-0.415039 0.415039,-0.952148 0,-0.537109 -0.415039,-0.927734 -0.415039,-0.415039 -0.927734,-0.415039 h -7.202149 q -2.832031,0 -4.711914,-1.782227 -1.879883,-1.806641 -1.879883,-4.56543 0,-1.171875 0.415039,-2.270508 0.415039,-1.123046 1.196289,-2.026367 0.805664,-0.927734 2.075196,-1.489258 1.293945,-0.561523 2.905273,-0.561523 h 13.916016 v 4.882813 H 45.946899 q -0.78125,0 -1.245117,0.439453 -0.463867,0.439453 -0.463867,1.02539 0,0.585938 0.463867,1.025391 0.463867,0.439453 1.245117,0.439453 h 7.080079 q 2.490234,0 4.418945,1.733398 1.928711,1.708985 1.928711,4.125977 0,2.294922 -1.757813,4.077148 -1.757812,1.782227 -4.589843,1.782227 z m 28.125,-13.476562 q -1.02539,1.14746 -1.02539,3.710937 0,2.563477 1.02539,3.735352 1.025391,1.147461 2.636719,1.147461 h 10.253906 q 1.611328,0 2.636719,-1.147461 1.025391,-1.171875 1.025391,-3.735352 0,-2.563477 -1.025391,-3.710937 -1.025391,-1.171875 -2.636719,-1.171875 H 69.62854 q -1.611328,0 -2.636719,1.171875 z m 2.636719,13.476562 q -9.033203,0 -9.033203,-9.765625 0,-9.765625 9.033203,-9.765625 h 10.253906 q 9.033203,0 9.033203,9.765625 0,9.765625 -9.033203,9.765625 z M 96.532837,70.108994 q -1.025391,1.14746 -1.025391,3.710937 0,2.563477 1.025391,3.735352 1.025391,1.147461 2.636719,1.147461 h 10.253904 q 1.61133,0 2.63672,-1.147461 1.02539,-1.171875 1.02539,-3.735352 0,-2.563477 -1.02539,-3.710937 -1.02539,-1.171875 -2.63672,-1.171875 H 99.169556 q -1.611328,0 -2.636719,1.171875 z m 2.636719,13.476562 q -9.033203,0 -9.033203,-9.765625 0,-9.765625 9.033203,-9.765625 h 10.253904 q 9.03321,0 9.03321,9.765625 0,9.765625 -9.03321,9.765625 z M 126.07385,70.108994 q -1.02539,1.14746 -1.02539,3.710937 0,2.563477 1.02539,3.735352 1.02539,1.147461 2.63672,1.147461 h 10.25391 q 1.61133,0 2.63672,-1.147461 1.02539,-1.171875 1.02539,-3.735352 0,-2.563477 -1.02539,-3.710937 -1.02539,-1.171875 -2.63672,-1.171875 h -10.25391 q -1.61133,0 -2.63672,1.171875 z m 2.63672,13.476562 q -9.0332,0 -9.0332,-9.765625 0,-9.765625 9.0332,-9.765625 h 10.25391 q 9.0332,0 9.0332,9.765625 0,9.765625 -9.0332,9.765625 z"
       id="text7"
       aria-label="f5000" />
  </g>
</svg>
